<?xml version="1.0" encoding="UTF-8" standalone="no"?>
<!-- Generator: Adobe Illustrator 19.1.0, SVG Export Plug-In . SVG Version: 6.00 Build 0)  -->

<svg
   xmlns:dc="http://purl.org/dc/elements/1.1/"
   xmlns:cc="http://creativecommons.org/ns#"
   xmlns:rdf="http://www.w3.org/1999/02/22-rdf-syntax-ns#"
   xmlns:svg="http://www.w3.org/2000/svg"
   xmlns="http://www.w3.org/2000/svg"
   xmlns:sodipodi="http://sodipodi.sourceforge.net/DTD/sodipodi-0.dtd"
   xmlns:inkscape="http://www.inkscape.org/namespaces/inkscape"
   version="1.1"
   id="Layer_1"
   x="0px"
   y="0px"
   viewBox="0 0 256 256"
   style="enable-background:new 0 0 256 256;"
   xml:space="preserve"
   sodipodi:docname="vector_iD_icon.svg"
   inkscape:version="0.92.3 (2405546, 2018-03-11)"><metadata
   id="metadata19"><rdf:RDF><cc:Work
       rdf:about=""><dc:format>image/svg+xml</dc:format><dc:type
         rdf:resource="http://purl.org/dc/dcmitype/StillImage" /></cc:Work></rdf:RDF></metadata><defs
   id="defs17" /><sodipodi:namedview
   pagecolor="#ffffff"
   bordercolor="#666666"
   borderopacity="1"
   objecttolerance="10"
   gridtolerance="10"
   guidetolerance="10"
   inkscape:pageopacity="0"
   inkscape:pageshadow="2"
   inkscape:window-width="1853"
   inkscape:window-height="1025"
   id="namedview15"
   showgrid="false"
   inkscape:zoom="0.921875"
   inkscape:cx="1.6271186"
   inkscape:cy="128"
   inkscape:window-x="67"
   inkscape:window-y="27"
   inkscape:window-maximized="1"
   inkscape:current-layer="Layer_1" />
<style
   type="text/css"
   id="style2">
	.st0{fill:#A6CE39;}
	.st1{fill:#FFFFFF;}
</style>
<path
   class="st0"
   d="M256,128c0,70.7-57.3,128-128,128C57.3,256,0,198.7,0,128C0,57.3,57.3,0,128,0C198.7,0,256,57.3,256,128z"
   id="path4"
   style="fill:#ffffe7;fill-opacity:1" />
<g
   id="g12"
   style="fill:#a6ce39;fill-opacity:1">
	<path
   class="st1"
   d="M86.3,186.2H70.9V79.1h15.4v48.4V186.2z"
   id="path6"
   style="fill:#a6ce39;fill-opacity:1" />
	<path
   class="st1"
   d="M108.9,79.1h41.6c39.6,0,57,28.3,57,53.6c0,27.5-21.5,53.6-56.8,53.6h-41.8V79.1z M124.3,172.4h24.5   c34.9,0,42.9-26.5,42.9-39.7c0-21.5-13.7-39.7-43.7-39.7h-23.7V172.4z"
   id="path8"
   style="fill:#a6ce39;fill-opacity:1" />
	<path
   class="st1"
   d="M88.7,56.8c0,5.5-4.5,10.1-10.1,10.1c-5.6,0-10.1-4.6-10.1-10.1c0-5.6,4.5-10.1,10.1-10.1   C84.2,46.7,88.7,51.3,88.7,56.8z"
   id="path10"
   style="fill:#a6ce39;fill-opacity:1" />
</g>
</svg>